<?xml version="1.0" encoding="UTF-8" standalone="no"?><svg xmlns="http://www.w3.org/2000/svg" xmlns:xlink="http://www.w3.org/1999/xlink" contentScriptType="application/ecmascript" contentStyleType="text/css" height="415px" preserveAspectRatio="none" style="width:726px;height:415px;" version="1.1" viewBox="0 0 726 415" width="726px" zoomAndPan="magnify"><defs><filter height="300%" id="f1wrvkes1bme68" width="300%" x="-1" y="-1"><feGaussianBlur result="blurOut" stdDeviation="2.0"/><feColorMatrix in="blurOut" result="blurOut2" type="matrix" values="0 0 0 0 0 0 0 0 0 0 0 0 0 0 0 0 0 0 .4 0"/><feOffset dx="4.0" dy="4.0" in="blurOut2" result="blurOut3"/><feBlend in="SourceGraphic" in2="blurOut3" mode="normal"/></filter></defs><g><!--cluster Cluster nodes--><polygon fill="#FFFFFF" filter="url(#f1wrvkes1bme68)" points="129,189,234,189,241,212.6094,391,212.6094,391,289,129,289,129,189" style="stroke: #000000; stroke-width: 1.5;"/><line style="stroke: #000000; stroke-width: 1.5;" x1="129" x2="241" y1="212.6094" y2="212.6094"/><text fill="#000000" font-family="sans-serif" font-size="14" font-weight="bold" lengthAdjust="spacingAndGlyphs" textLength="99" x="133" y="205.5332">Cluster nodes</text><!--cluster Service nodes A--><polygon fill="#FFFFFF" filter="url(#f1wrvkes1bme68)" points="22,75,143,75,150,98.6094,248,98.6094,248,165,22,165,22,75" style="stroke: #000000; stroke-width: 1.5;"/><line style="stroke: #000000; stroke-width: 1.5;" x1="22" x2="150" y1="98.6094" y2="98.6094"/><text fill="#000000" font-family="sans-serif" font-size="14" font-weight="bold" lengthAdjust="spacingAndGlyphs" textLength="115" x="26" y="91.5332">Service nodes A</text><!--cluster Service nodes B--><polygon fill="#FFFFFF" filter="url(#f1wrvkes1bme68)" points="272,75,394,75,401,98.6094,498,98.6094,498,165,272,165,272,75" style="stroke: #000000; stroke-width: 1.5;"/><line style="stroke: #000000; stroke-width: 1.5;" x1="272" x2="401" y1="98.6094" y2="98.6094"/><text fill="#000000" font-family="sans-serif" font-size="14" font-weight="bold" lengthAdjust="spacingAndGlyphs" textLength="116" x="276" y="91.5332">Service nodes B</text><!--cluster Clients--><polygon fill="#FFFFFF" filter="url(#f1wrvkes1bme68)" points="160,313,215,313,222,336.6094,361,336.6094,361,403,160,403,160,313" style="stroke: #000000; stroke-width: 1.5;"/><line style="stroke: #000000; stroke-width: 1.5;" x1="160" x2="222" y1="336.6094" y2="336.6094"/><text fill="#000000" font-family="sans-serif" font-size="14" font-weight="bold" lengthAdjust="spacingAndGlyphs" textLength="49" x="164" y="329.5332">Clients</text><!--entity Cluster 1--><polygon fill="#FEFECE" filter="url(#f1wrvkes1bme68)" points="145.5,235,155.5,225,242.5,225,242.5,262.6094,232.5,272.6094,145.5,272.6094,145.5,235" style="stroke: #000000; stroke-width: 1.5;"/><line style="stroke: #000000; stroke-width: 1.5;" x1="232.5" x2="241.5" y1="235" y2="226"/><line style="stroke: #000000; stroke-width: 1.5;" x1="145.5" x2="232.5" y1="235" y2="235"/><line style="stroke: #000000; stroke-width: 1.5;" x1="232.5" x2="232.5" y1="235" y2="272.6094"/><text fill="#000000" font-family="sans-serif" font-size="14" lengthAdjust="spacingAndGlyphs" textLength="57" x="160.5" y="259.5332">Cluster 1</text><!--entity Cluster 2--><polygon fill="#FEFECE" filter="url(#f1wrvkes1bme68)" points="277.5,235,287.5,225,374.5,225,374.5,262.6094,364.5,272.6094,277.5,272.6094,277.5,235" style="stroke: #000000; stroke-width: 1.5;"/><line style="stroke: #000000; stroke-width: 1.5;" x1="364.5" x2="373.5" y1="235" y2="226"/><line style="stroke: #000000; stroke-width: 1.5;" x1="277.5" x2="364.5" y1="235" y2="235"/><line style="stroke: #000000; stroke-width: 1.5;" x1="364.5" x2="364.5" y1="235" y2="272.6094"/><text fill="#000000" font-family="sans-serif" font-size="14" lengthAdjust="spacingAndGlyphs" textLength="57" x="292.5" y="259.5332">Cluster 2</text><!--entity Service 2--><rect fill="#FEFECE" filter="url(#f1wrvkes1bme68)" height="37.6094" style="stroke: #A80036; stroke-width: 1.5;" width="79" x="152.5" y="111"/><rect fill="#FEFECE" height="5" style="stroke: #A80036; stroke-width: 1.5;" width="10" x="147.5" y="116"/><rect fill="#FEFECE" height="5" style="stroke: #A80036; stroke-width: 1.5;" width="10" x="147.5" y="138.6094"/><text fill="#000000" font-family="sans-serif" font-size="14" lengthAdjust="spacingAndGlyphs" textLength="59" x="162.5" y="135.5332">Service 2</text><!--entity Service 1--><rect fill="#FEFECE" filter="url(#f1wrvkes1bme68)" height="37.6094" style="stroke: #A80036; stroke-width: 1.5;" width="79" x="38.5" y="111"/><rect fill="#FEFECE" height="5" style="stroke: #A80036; stroke-width: 1.5;" width="10" x="33.5" y="116"/><rect fill="#FEFECE" height="5" style="stroke: #A80036; stroke-width: 1.5;" width="10" x="33.5" y="138.6094"/><text fill="#000000" font-family="sans-serif" font-size="14" lengthAdjust="spacingAndGlyphs" textLength="59" x="48.5" y="135.5332">Service 1</text><!--entity Service 4--><rect fill="#FEFECE" filter="url(#f1wrvkes1bme68)" height="37.6094" style="stroke: #A80036; stroke-width: 1.5;" width="79" x="402.5" y="111"/><rect fill="#FEFECE" height="5" style="stroke: #A80036; stroke-width: 1.5;" width="10" x="397.5" y="116"/><rect fill="#FEFECE" height="5" style="stroke: #A80036; stroke-width: 1.5;" width="10" x="397.5" y="138.6094"/><text fill="#000000" font-family="sans-serif" font-size="14" lengthAdjust="spacingAndGlyphs" textLength="59" x="412.5" y="135.5332">Service 4</text><!--entity Service 3--><rect fill="#FEFECE" filter="url(#f1wrvkes1bme68)" height="37.6094" style="stroke: #A80036; stroke-width: 1.5;" width="79" x="288.5" y="111"/><rect fill="#FEFECE" height="5" style="stroke: #A80036; stroke-width: 1.5;" width="10" x="283.5" y="116"/><rect fill="#FEFECE" height="5" style="stroke: #A80036; stroke-width: 1.5;" width="10" x="283.5" y="138.6094"/><text fill="#000000" font-family="sans-serif" font-size="14" lengthAdjust="spacingAndGlyphs" textLength="59" x="298.5" y="135.5332">Service 3</text><!--entity Client x--><rect fill="#FEFECE" filter="url(#f1wrvkes1bme68)" height="37.6094" style="stroke: #A80036; stroke-width: 1.5;" width="66" x="176" y="349"/><rect fill="#FEFECE" height="5" style="stroke: #A80036; stroke-width: 1.5;" width="10" x="171" y="354"/><rect fill="#FEFECE" height="5" style="stroke: #A80036; stroke-width: 1.5;" width="10" x="171" y="376.6094"/><text fill="#000000" font-family="sans-serif" font-size="14" lengthAdjust="spacingAndGlyphs" textLength="46" x="186" y="373.5332">Client x</text><!--entity Client y--><rect fill="#FEFECE" filter="url(#f1wrvkes1bme68)" height="37.6094" style="stroke: #A80036; stroke-width: 1.5;" width="67" x="277.5" y="349"/><rect fill="#FEFECE" height="5" style="stroke: #A80036; stroke-width: 1.5;" width="10" x="272.5" y="354"/><rect fill="#FEFECE" height="5" style="stroke: #A80036; stroke-width: 1.5;" width="10" x="272.5" y="376.6094"/><text fill="#000000" font-family="sans-serif" font-size="14" lengthAdjust="spacingAndGlyphs" textLength="47" x="287.5" y="373.5332">Client y</text><path d="M296,8 L296,50.7031 A0,0 0 0 0 296,50.7031 L438,50.7031 L442,110.79 L446,50.7031 L588,50.7031 A0,0 0 0 0 588,50.7031 L588,18 L578,8 L296,8 A0,0 0 0 0 296,8 " fill="#FBFB77" filter="url(#f1wrvkes1bme68)" style="stroke: #A80036; stroke-width: 1.0;"/><path d="M578,8 L578,18 L588,18 L578,8 " fill="#FBFB77" style="stroke: #A80036; stroke-width: 1.0;"/><text fill="#000000" font-family="sans-serif" font-size="13" lengthAdjust="spacingAndGlyphs" textLength="253" x="302" y="26.4951">Services nodes register, ping and unregister</text><text fill="#000000" font-family="sans-serif" font-size="13" lengthAdjust="spacingAndGlyphs" textLength="271" x="302" y="42.8467">themselves on all known cluster master nodes.</text><path d="M380,338.5 L380,364 L344.539,368 L380,372 L380,397.5547 A0,0 0 0 0 380,397.5547 L560,397.5547 A0,0 0 0 0 560,397.5547 L560,348.5 L550,338.5 L380,338.5 A0,0 0 0 0 380,338.5 " fill="#FBFB77" filter="url(#f1wrvkes1bme68)" style="stroke: #A80036; stroke-width: 1.0;"/><path d="M550,338.5 L550,348.5 L560,348.5 L550,338.5 " fill="#FBFB77" style="stroke: #A80036; stroke-width: 1.0;"/><text fill="#000000" font-family="sans-serif" font-size="13" lengthAdjust="spacingAndGlyphs" textLength="141" x="386" y="356.9951">Clients request a cluster</text><text fill="#000000" font-family="sans-serif" font-size="13" lengthAdjust="spacingAndGlyphs" textLength="159" x="386" y="373.3467">node to get a service list by</text><text fill="#000000" font-family="sans-serif" font-size="13" lengthAdjust="spacingAndGlyphs" textLength="102" x="386" y="389.6982">name, group, etc.</text><path d="M410,227.5 L410,245 L374.859,249 L410,253 L410,270.2031 A0,0 0 0 0 410,270.2031 L714,270.2031 A0,0 0 0 0 714,270.2031 L714,237.5 L704,227.5 L410,227.5 A0,0 0 0 0 410,227.5 " fill="#FBFB77" filter="url(#f1wrvkes1bme68)" style="stroke: #A80036; stroke-width: 1.0;"/><path d="M704,227.5 L704,237.5 L714,237.5 L704,227.5 " fill="#FBFB77" style="stroke: #A80036; stroke-width: 1.0;"/><text fill="#000000" font-family="sans-serif" font-size="13" lengthAdjust="spacingAndGlyphs" textLength="254" x="416" y="245.9951">The cluster master server stores and shares</text><text fill="#000000" font-family="sans-serif" font-size="13" lengthAdjust="spacingAndGlyphs" textLength="283" x="416" y="262.3467">information about registered services and groups.</text><!--link Cluster 1 to Cluster 2--><path d="M247.845,249 C255.95,249 264.055,249 272.16,249 " fill="none" id="Cluster 1-Cluster 2" style="stroke: #A80036; stroke-width: 1.0;"/><polygon fill="#A80036" points="277.207,249,268.207,245,272.207,249,268.207,253,277.207,249" style="stroke: #A80036; stroke-width: 1.0;"/><polygon fill="#A80036" points="242.727,249,251.727,253,247.727,249,251.727,245,242.727,249" style="stroke: #A80036; stroke-width: 1.0;"/><!--link Service 2 to Cluster 1--><path d="M192.308,149.025 C192.631,167.896 193.142,197.789 193.518,219.789 " fill="none" id="Service 2-Cluster 1" style="stroke: #A80036; stroke-width: 1.0;"/><polygon fill="#A80036" points="193.605,224.918,197.4501,215.8508,193.5193,219.9187,189.4513,215.9879,193.605,224.918" style="stroke: #A80036; stroke-width: 1.0;"/><!--link Service 2 to Cluster 2--><path d="M218.579,149.059 C231.457,158.176 246.926,169.684 260,181 C274.321,193.396 289.214,208.314 301.222,220.924 " fill="none" id="Service 2-Cluster 2" style="stroke: #A80036; stroke-width: 1.0;"/><polygon fill="#A80036" points="304.852,224.758,301.5684,215.4726,301.4142,221.1274,295.7594,220.9731,304.852,224.758" style="stroke: #A80036; stroke-width: 1.0;"/><!--link Service 1 to Cluster 1--><path d="M95.8708,149.025 C114.975,168.294 145.473,199.055 167.4,221.171 " fill="none" id="Service 1-Cluster 1" style="stroke: #A80036; stroke-width: 1.0;"/><polygon fill="#A80036" points="171.116,224.918,167.6195,215.7107,167.5955,221.3675,161.9387,221.3435,171.116,224.918" style="stroke: #A80036; stroke-width: 1.0;"/><!--link Service 1 to Cluster 2--><path d="M96.6664,149.038 C107.081,157.925 120.795,167.823 135,173 C161.152,182.531 234.681,169.437 260,181 C278.87,189.618 295.267,206.185 306.997,220.688 " fill="none" id="Service 1-Cluster 2" style="stroke: #A80036; stroke-width: 1.0;"/><polygon fill="#A80036" points="310.18,224.716,307.7382,215.1746,307.0799,220.793,301.4615,220.1347,310.18,224.716" style="stroke: #A80036; stroke-width: 1.0;"/><!--link Service 4 to Cluster 1--><path d="M423.334,149.038 C412.919,157.925 399.205,167.823 385,173 C358.848,182.531 285.319,169.437 260,181 C241.13,189.618 224.733,206.185 213.003,220.688 " fill="none" id="Service 4-Cluster 1" style="stroke: #A80036; stroke-width: 1.0;"/><polygon fill="#A80036" points="209.82,224.716,218.5385,220.1347,212.9201,220.793,212.2618,215.1746,209.82,224.716" style="stroke: #A80036; stroke-width: 1.0;"/><!--link Service 4 to Cluster 2--><path d="M423.915,149.019 C414.401,158.516 402.55,170.37 392,181 C378.97,194.128 364.549,208.757 352.518,220.988 " fill="none" id="Service 4-Cluster 2" style="stroke: #A80036; stroke-width: 1.0;"/><polygon fill="#A80036" points="348.865,224.702,358.0271,221.0886,352.3704,221.1366,352.3224,215.4799,348.865,224.702" style="stroke: #A80036; stroke-width: 1.0;"/><!--link Service 3 to Cluster 1--><path d="M301.421,149.059 C288.543,158.176 273.074,169.684 260,181 C245.679,193.396 230.786,208.314 218.778,220.924 " fill="none" id="Service 3-Cluster 1" style="stroke: #A80036; stroke-width: 1.0;"/><polygon fill="#A80036" points="215.148,224.758,224.2406,220.9731,218.5858,221.1274,218.4316,215.4726,215.148,224.758" style="stroke: #A80036; stroke-width: 1.0;"/><!--link Service 3 to Cluster 2--><path d="M327.692,149.025 C327.369,167.896 326.858,197.789 326.482,219.789 " fill="none" id="Service 3-Cluster 2" style="stroke: #A80036; stroke-width: 1.0;"/><polygon fill="#A80036" points="326.395,224.918,330.5487,215.9879,326.4807,219.9187,322.5499,215.8508,326.395,224.918" style="stroke: #A80036; stroke-width: 1.0;"/><!--link Cluster 1 to Client x--><path d="M197.62,278.239 C200.438,300.213 204.262,330.0467 206.681,348.9132 " fill="none" id="Cluster 1-Client x" style="stroke: #A80036; stroke-width: 1.0;"/><polygon fill="#A80036" points="196.964,273.115,194.141,282.5506,197.5998,278.0744,202.076,281.5333,196.964,273.115" style="stroke: #A80036; stroke-width: 1.0;"/><!--link Client y to Cluster 2--><path d="M313.319,348.9132 C315.738,330.0467 319.562,300.213 322.38,278.239 " fill="none" id="Client y-Cluster 2" style="stroke: #A80036; stroke-width: 1.0;"/><polygon fill="#A80036" points="323.036,273.115,317.924,281.5333,322.4002,278.0744,325.859,282.5506,323.036,273.115" style="stroke: #A80036; stroke-width: 1.0;"/><!--
@startuml

folder "Cluster nodes" {
   node "Cluster 1"
   node "Cluster 2"
  [Cluster 1] <-> [Cluster 2]
}

folder "Service nodes A" {
  [Service 2] -down-> [Cluster 1]
  [Service 2] -down-> [Cluster 2]
  [Service 1] -down-> [Cluster 1]
  [Service 1] -down-> [Cluster 2]
}

folder "Service nodes B" {
  [Service 4] -down-> [Cluster 1]
  [Service 4] -down-> [Cluster 2]
  [Service 3] -down-> [Cluster 1]
  [Service 3] -down-> [Cluster 2]
}

folder "Clients" {
  [Cluster 1] <- - [Client x]
  [Client y] - -> [Cluster 2]
}

note top of [Service 4]
  Services nodes register, ping and unregister
  themselves on all known cluster master nodes.
end note

note right of [Client y]
  Clients request a cluster
  node to get a service list by
  name, group, etc.
end note

note right of [Cluster 2]
  The cluster master server stores and shares
  information about registered services and groups.
end note
@enduml

PlantUML version 1.2018.01(Sun Jan 28 19:08:22 CET 2018)
(APACHE source distribution)
Java Runtime: Java(TM) SE Runtime Environment
JVM: Java HotSpot(TM) 64-Bit Server VM
Java Version: 1.8.0_161-b12
Operating System: Windows 7
OS Version: 6.1
Default Encoding: UTF-8
Language: fr
Country: FR
--></g></svg>