<?xml version="1.0" encoding="UTF-8" standalone="no"?><svg xmlns="http://www.w3.org/2000/svg" xmlns:xlink="http://www.w3.org/1999/xlink" contentScriptType="application/ecmascript" contentStyleType="text/css" height="487px" preserveAspectRatio="none" style="width:1343px;height:487px;" version="1.1" viewBox="0 0 1343 487" width="1343px" zoomAndPan="magnify"><defs><filter height="300%" id="f2ryv8bw97v9i" width="300%" x="-1" y="-1"><feGaussianBlur result="blurOut" stdDeviation="2.0"/><feColorMatrix in="blurOut" result="blurOut2" type="matrix" values="0 0 0 0 0 0 0 0 0 0 0 0 0 0 0 0 0 0 .4 0"/><feOffset dx="4.0" dy="4.0" in="blurOut2" result="blurOut3"/><feBlend in="SourceGraphic" in2="blurOut3" mode="normal"/></filter></defs><g><!--cluster node 1--><polygon fill="#FFFFFF" filter="url(#f2ryv8bw97v9i)" points="211,24,265,24,272,47.6094,550,47.6094,550,114,211,114,211,24" style="stroke: #000000; stroke-width: 1.5;"/><line style="stroke: #000000; stroke-width: 1.5;" x1="211" x2="272" y1="47.6094" y2="47.6094"/><text fill="#000000" font-family="sans-serif" font-size="14" font-weight="bold" lengthAdjust="spacingAndGlyphs" textLength="48" x="215" y="40.5332">node 1</text><!--cluster node 2--><polygon fill="#FFFFFF" filter="url(#f2ryv8bw97v9i)" points="574,24,628,24,635,47.6094,913,47.6094,913,114,574,114,574,24" style="stroke: #000000; stroke-width: 1.5;"/><line style="stroke: #000000; stroke-width: 1.5;" x1="574" x2="635" y1="47.6094" y2="47.6094"/><text fill="#000000" font-family="sans-serif" font-size="14" font-weight="bold" lengthAdjust="spacingAndGlyphs" textLength="48" x="578" y="40.5332">node 2</text><!--cluster node 3--><polygon fill="#FFFFFF" filter="url(#f2ryv8bw97v9i)" points="106,279,160,279,167,302.6094,445,302.6094,445,369,106,369,106,279" style="stroke: #000000; stroke-width: 1.5;"/><line style="stroke: #000000; stroke-width: 1.5;" x1="106" x2="167" y1="302.6094" y2="302.6094"/><text fill="#000000" font-family="sans-serif" font-size="14" font-weight="bold" lengthAdjust="spacingAndGlyphs" textLength="48" x="110" y="295.5332">node 3</text><!--cluster node 4--><polygon fill="#FFFFFF" filter="url(#f2ryv8bw97v9i)" points="469,279,523,279,530,302.6094,808,302.6094,808,369,469,369,469,279" style="stroke: #000000; stroke-width: 1.5;"/><line style="stroke: #000000; stroke-width: 1.5;" x1="469" x2="530" y1="302.6094" y2="302.6094"/><text fill="#000000" font-family="sans-serif" font-size="14" font-weight="bold" lengthAdjust="spacingAndGlyphs" textLength="48" x="473" y="295.5332">node 4</text><!--cluster master 1--><polygon fill="#FFFFFF" filter="url(#f2ryv8bw97v9i)" points="407,155.5,473,155.5,480,179.1094,768,179.1094,768,245.5,407,245.5,407,155.5" style="stroke: #000000; stroke-width: 1.5;"/><line style="stroke: #000000; stroke-width: 1.5;" x1="407" x2="480" y1="179.1094" y2="179.1094"/><text fill="#000000" font-family="sans-serif" font-size="14" font-weight="bold" lengthAdjust="spacingAndGlyphs" textLength="60" x="411" y="172.0332">master 1</text><!--cluster master 2--><polygon fill="#FFFFFF" filter="url(#f2ryv8bw97v9i)" points="22,155.5,88,155.5,95,179.1094,383,179.1094,383,245.5,22,245.5,22,155.5" style="stroke: #000000; stroke-width: 1.5;"/><line style="stroke: #000000; stroke-width: 1.5;" x1="22" x2="95" y1="179.1094" y2="179.1094"/><text fill="#000000" font-family="sans-serif" font-size="14" font-weight="bold" lengthAdjust="spacingAndGlyphs" textLength="60" x="26" y="172.0332">master 2</text><!--entity java code 1--><rect fill="#FEFECE" filter="url(#f2ryv8bw97v9i)" height="37.6094" style="stroke: #A80036; stroke-width: 1.5;" width="93" x="440.5" y="60"/><rect fill="#FEFECE" height="5" style="stroke: #A80036; stroke-width: 1.5;" width="10" x="435.5" y="65"/><rect fill="#FEFECE" height="5" style="stroke: #A80036; stroke-width: 1.5;" width="10" x="435.5" y="87.6094"/><text fill="#000000" font-family="sans-serif" font-size="14" lengthAdjust="spacingAndGlyphs" textLength="73" x="450.5" y="84.5332">java code 1</text><!--entity cluster manager 1--><rect fill="#FEFECE" filter="url(#f2ryv8bw97v9i)" height="37.6094" style="stroke: #A80036; stroke-width: 1.5;" width="134" x="227" y="60"/><rect fill="#FEFECE" height="5" style="stroke: #A80036; stroke-width: 1.5;" width="10" x="222" y="65"/><rect fill="#FEFECE" height="5" style="stroke: #A80036; stroke-width: 1.5;" width="10" x="222" y="87.6094"/><text fill="#000000" font-family="sans-serif" font-size="14" lengthAdjust="spacingAndGlyphs" textLength="114" x="237" y="84.5332">cluster manager 1</text><!--entity java code 2--><rect fill="#FEFECE" filter="url(#f2ryv8bw97v9i)" height="37.6094" style="stroke: #A80036; stroke-width: 1.5;" width="93" x="803.5" y="60"/><rect fill="#FEFECE" height="5" style="stroke: #A80036; stroke-width: 1.5;" width="10" x="798.5" y="65"/><rect fill="#FEFECE" height="5" style="stroke: #A80036; stroke-width: 1.5;" width="10" x="798.5" y="87.6094"/><text fill="#000000" font-family="sans-serif" font-size="14" lengthAdjust="spacingAndGlyphs" textLength="73" x="813.5" y="84.5332">java code 2</text><!--entity cluster manager 2--><rect fill="#FEFECE" filter="url(#f2ryv8bw97v9i)" height="37.6094" style="stroke: #A80036; stroke-width: 1.5;" width="134" x="590" y="60"/><rect fill="#FEFECE" height="5" style="stroke: #A80036; stroke-width: 1.5;" width="10" x="585" y="65"/><rect fill="#FEFECE" height="5" style="stroke: #A80036; stroke-width: 1.5;" width="10" x="585" y="87.6094"/><text fill="#000000" font-family="sans-serif" font-size="14" lengthAdjust="spacingAndGlyphs" textLength="114" x="600" y="84.5332">cluster manager 2</text><!--entity java code 3--><rect fill="#FEFECE" filter="url(#f2ryv8bw97v9i)" height="37.6094" style="stroke: #A80036; stroke-width: 1.5;" width="93" x="335.5" y="315"/><rect fill="#FEFECE" height="5" style="stroke: #A80036; stroke-width: 1.5;" width="10" x="330.5" y="320"/><rect fill="#FEFECE" height="5" style="stroke: #A80036; stroke-width: 1.5;" width="10" x="330.5" y="342.6094"/><text fill="#000000" font-family="sans-serif" font-size="14" lengthAdjust="spacingAndGlyphs" textLength="73" x="345.5" y="339.5332">java code 3</text><!--entity cluster manager 3--><rect fill="#FEFECE" filter="url(#f2ryv8bw97v9i)" height="37.6094" style="stroke: #A80036; stroke-width: 1.5;" width="134" x="122" y="315"/><rect fill="#FEFECE" height="5" style="stroke: #A80036; stroke-width: 1.5;" width="10" x="117" y="320"/><rect fill="#FEFECE" height="5" style="stroke: #A80036; stroke-width: 1.5;" width="10" x="117" y="342.6094"/><text fill="#000000" font-family="sans-serif" font-size="14" lengthAdjust="spacingAndGlyphs" textLength="114" x="132" y="339.5332">cluster manager 3</text><!--entity java code 4--><rect fill="#FEFECE" filter="url(#f2ryv8bw97v9i)" height="37.6094" style="stroke: #A80036; stroke-width: 1.5;" width="93" x="698.5" y="315"/><rect fill="#FEFECE" height="5" style="stroke: #A80036; stroke-width: 1.5;" width="10" x="693.5" y="320"/><rect fill="#FEFECE" height="5" style="stroke: #A80036; stroke-width: 1.5;" width="10" x="693.5" y="342.6094"/><text fill="#000000" font-family="sans-serif" font-size="14" lengthAdjust="spacingAndGlyphs" textLength="73" x="708.5" y="339.5332">java code 4</text><!--entity cluster manager 4--><rect fill="#FEFECE" filter="url(#f2ryv8bw97v9i)" height="37.6094" style="stroke: #A80036; stroke-width: 1.5;" width="134" x="485" y="315"/><rect fill="#FEFECE" height="5" style="stroke: #A80036; stroke-width: 1.5;" width="10" x="480" y="320"/><rect fill="#FEFECE" height="5" style="stroke: #A80036; stroke-width: 1.5;" width="10" x="480" y="342.6094"/><text fill="#000000" font-family="sans-serif" font-size="14" lengthAdjust="spacingAndGlyphs" textLength="114" x="495" y="339.5332">cluster manager 4</text><!--entity java code m1--><rect fill="#FEFECE" filter="url(#f2ryv8bw97v9i)" height="37.6094" style="stroke: #A80036; stroke-width: 1.5;" width="104" x="648" y="191.5"/><rect fill="#FEFECE" height="5" style="stroke: #A80036; stroke-width: 1.5;" width="10" x="643" y="196.5"/><rect fill="#FEFECE" height="5" style="stroke: #A80036; stroke-width: 1.5;" width="10" x="643" y="219.1094"/><text fill="#000000" font-family="sans-serif" font-size="14" lengthAdjust="spacingAndGlyphs" textLength="84" x="658" y="216.0332">java code m1</text><!--entity cluster manager m1--><rect fill="#FEFECE" filter="url(#f2ryv8bw97v9i)" height="37.6094" style="stroke: #A80036; stroke-width: 1.5;" width="145" x="423.5" y="191.5"/><rect fill="#FEFECE" height="5" style="stroke: #A80036; stroke-width: 1.5;" width="10" x="418.5" y="196.5"/><rect fill="#FEFECE" height="5" style="stroke: #A80036; stroke-width: 1.5;" width="10" x="418.5" y="219.1094"/><text fill="#000000" font-family="sans-serif" font-size="14" lengthAdjust="spacingAndGlyphs" textLength="125" x="433.5" y="216.0332">cluster manager m1</text><!--entity java code m2--><rect fill="#FEFECE" filter="url(#f2ryv8bw97v9i)" height="37.6094" style="stroke: #A80036; stroke-width: 1.5;" width="104" x="38" y="191.5"/><rect fill="#FEFECE" height="5" style="stroke: #A80036; stroke-width: 1.5;" width="10" x="33" y="196.5"/><rect fill="#FEFECE" height="5" style="stroke: #A80036; stroke-width: 1.5;" width="10" x="33" y="219.1094"/><text fill="#000000" font-family="sans-serif" font-size="14" lengthAdjust="spacingAndGlyphs" textLength="84" x="48" y="216.0332">java code m2</text><!--entity cluster manager m2--><rect fill="#FEFECE" filter="url(#f2ryv8bw97v9i)" height="37.6094" style="stroke: #A80036; stroke-width: 1.5;" width="145" x="221.5" y="191.5"/><rect fill="#FEFECE" height="5" style="stroke: #A80036; stroke-width: 1.5;" width="10" x="216.5" y="196.5"/><rect fill="#FEFECE" height="5" style="stroke: #A80036; stroke-width: 1.5;" width="10" x="216.5" y="219.1094"/><text fill="#000000" font-family="sans-serif" font-size="14" lengthAdjust="spacingAndGlyphs" textLength="125" x="231.5" y="216.0332">cluster manager m2</text><path d="M787.5,189 L787.5,231.7031 A0,0 0 0 0 787.5,231.7031 L980.5,231.7031 A0,0 0 0 0 980.5,231.7031 L980.5,199 L970.5,189 L851.835,189 L688.563,98.006 L843.835,189 L787.5,189 A0,0 0 0 0 787.5,189 " fill="#FBFB77" filter="url(#f2ryv8bw97v9i)" style="stroke: #A80036; stroke-width: 1.0;"/><path d="M970.5,189 L970.5,199 L980.5,199 L970.5,189 " fill="#FBFB77" style="stroke: #A80036; stroke-width: 1.0;"/><text fill="#000000" font-family="sans-serif" font-size="13" lengthAdjust="spacingAndGlyphs" textLength="168" x="793.5" y="207.4951">Each node sends information</text><text fill="#000000" font-family="sans-serif" font-size="13" lengthAdjust="spacingAndGlyphs" textLength="172" x="793.5" y="223.8467">to the cluster using multicast.</text><path d="M76.5,416 L76.5,475.0547 A0,0 0 0 0 76.5,475.0547 L301.5,475.0547 A0,0 0 0 0 301.5,475.0547 L301.5,426 L291.5,416 L193,416 L189,353.082 L185,416 L76.5,416 A0,0 0 0 0 76.5,416 " fill="#FBFB77" filter="url(#f2ryv8bw97v9i)" style="stroke: #A80036; stroke-width: 1.0;"/><path d="M291.5,416 L291.5,426 L301.5,426 L291.5,416 " fill="#FBFB77" style="stroke: #A80036; stroke-width: 1.0;"/><text fill="#000000" font-family="sans-serif" font-size="13" lengthAdjust="spacingAndGlyphs" textLength="204" x="82.5" y="434.4951">Every node receives the information</text><text fill="#000000" font-family="sans-serif" font-size="13" lengthAdjust="spacingAndGlyphs" textLength="203" x="82.5" y="450.8467">sent by the others. Each maintains</text><text fill="#000000" font-family="sans-serif" font-size="13" lengthAdjust="spacingAndGlyphs" textLength="167" x="82.5" y="467.1982">its own in-memory database.</text><!--entity multicast--><rect fill="#FEFECE" filter="url(#f2ryv8bw97v9i)" height="37.6094" style="stroke: #A80036; stroke-width: 1.5;" width="75" x="1257.5" y="60"/><rect fill="#FEFECE" height="5" style="stroke: #A80036; stroke-width: 1.5;" width="10" x="1252.5" y="65"/><rect fill="#FEFECE" height="5" style="stroke: #A80036; stroke-width: 1.5;" width="10" x="1252.5" y="87.6094"/><text fill="#000000" font-family="sans-serif" font-size="14" lengthAdjust="spacingAndGlyphs" textLength="55" x="1267.5" y="84.5332">multicast</text><path d="M931.5,49.5 L931.5,108.5547 A0,0 0 0 0 931.5,108.5547 L1222.5,108.5547 A0,0 0 0 0 1222.5,108.5547 L1222.5,83 L1257.39,79 L1222.5,75 L1222.5,59.5 L1212.5,49.5 L931.5,49.5 A0,0 0 0 0 931.5,49.5 " fill="#FBFB77" filter="url(#f2ryv8bw97v9i)" style="stroke: #A80036; stroke-width: 1.0;"/><path d="M1212.5,49.5 L1212.5,59.5 L1222.5,59.5 L1212.5,49.5 " fill="#FBFB77" style="stroke: #A80036; stroke-width: 1.0;"/><text fill="#000000" font-family="sans-serif" font-size="13" lengthAdjust="spacingAndGlyphs" textLength="270" x="937.5" y="67.9951">Information about endpoints, groups &amp; services</text><text fill="#000000" font-family="sans-serif" font-size="13" lengthAdjust="spacingAndGlyphs" textLength="242" x="937.5" y="84.3467">gets sent to a multicast address. It in turn</text><text fill="#000000" font-family="sans-serif" font-size="13" lengthAdjust="spacingAndGlyphs" textLength="228" x="937.5" y="100.6982">broadcasts the message to every node.</text><path d="M622,416 L622,475.0547 A0,0 0 0 0 622,475.0547 L868,475.0547 A0,0 0 0 0 868,475.0547 L868,426 L858,416 L749,416 L745,353.082 L741,416 L622,416 A0,0 0 0 0 622,416 " fill="#FBFB77" filter="url(#f2ryv8bw97v9i)" style="stroke: #A80036; stroke-width: 1.0;"/><path d="M858,416 L858,426 L868,426 L858,416 " fill="#FBFB77" style="stroke: #A80036; stroke-width: 1.0;"/><text fill="#000000" font-family="sans-serif" font-size="13" lengthAdjust="spacingAndGlyphs" textLength="206" x="628" y="434.4951">The local java code gets information</text><text fill="#000000" font-family="sans-serif" font-size="13" lengthAdjust="spacingAndGlyphs" textLength="194" x="628" y="450.8467">about nodes, groups and services</text><text fill="#000000" font-family="sans-serif" font-size="13" lengthAdjust="spacingAndGlyphs" textLength="225" x="628" y="467.1982">by querrying the local cluster manager.</text><!--link cluster manager 1 to java code 1--><path d="M366.472,79 C391.203,79 418.183,79 440.334,79 " fill="none" id="cluster manager 1-java code 1" style="stroke: #A80036; stroke-width: 1.0;"/><polygon fill="#A80036" points="361.231,79,370.231,83,366.231,79,370.231,75,361.231,79" style="stroke: #A80036; stroke-width: 1.0;"/><text fill="#000000" font-family="sans-serif" font-size="13" lengthAdjust="spacingAndGlyphs" textLength="43" x="379.25" y="72.4951">request</text><!--link cluster manager 2 to java code 2--><path d="M729.472,79 C754.203,79 781.183,79 803.334,79 " fill="none" id="cluster manager 2-java code 2" style="stroke: #A80036; stroke-width: 1.0;"/><polygon fill="#A80036" points="724.231,79,733.231,83,729.231,79,733.231,75,724.231,79" style="stroke: #A80036; stroke-width: 1.0;"/><text fill="#000000" font-family="sans-serif" font-size="13" lengthAdjust="spacingAndGlyphs" textLength="43" x="742.25" y="72.4951">request</text><!--link cluster manager 3 to java code 3--><path d="M261.472,334 C286.203,334 313.183,334 335.334,334 " fill="none" id="cluster manager 3-java code 3" style="stroke: #A80036; stroke-width: 1.0;"/><polygon fill="#A80036" points="256.231,334,265.231,338,261.231,334,265.231,330,256.231,334" style="stroke: #A80036; stroke-width: 1.0;"/><text fill="#000000" font-family="sans-serif" font-size="13" lengthAdjust="spacingAndGlyphs" textLength="43" x="274.25" y="327.4951">request</text><!--link cluster manager 4 to java code 4--><path d="M624.472,334 C649.203,334 676.183,334 698.334,334 " fill="none" id="cluster manager 4-java code 4" style="stroke: #A80036; stroke-width: 1.0;"/><polygon fill="#A80036" points="619.231,334,628.231,338,624.231,334,628.231,330,619.231,334" style="stroke: #A80036; stroke-width: 1.0;"/><text fill="#000000" font-family="sans-serif" font-size="13" lengthAdjust="spacingAndGlyphs" textLength="43" x="637.25" y="327.4951">request</text><!--link cluster manager m1 to java code m1--><path d="M574.017,210.5 C598.687,210.5 625.342,210.5 647.753,210.5 " fill="none" id="cluster manager m1-java code m1" style="stroke: #A80036; stroke-width: 1.0;"/><polygon fill="#A80036" points="568.785,210.5,577.785,214.5,573.785,210.5,577.785,206.5,568.785,210.5" style="stroke: #A80036; stroke-width: 1.0;"/><text fill="#000000" font-family="sans-serif" font-size="13" lengthAdjust="spacingAndGlyphs" textLength="43" x="586.75" y="203.9951">request</text><!--link java code m2 to cluster manager m2--><path d="M142.006,210.5 C164.488,210.5 191.276,210.5 216.055,210.5 " fill="none" id="java code m2-cluster manager m2" style="stroke: #A80036; stroke-width: 1.0;"/><polygon fill="#A80036" points="221.31,210.5,212.31,206.5,216.31,210.5,212.31,214.5,221.31,210.5" style="stroke: #A80036; stroke-width: 1.0;"/><text fill="#000000" font-family="sans-serif" font-size="13" lengthAdjust="spacingAndGlyphs" textLength="43" x="160.25" y="203.9951">request</text><!--link cluster manager m1 to cluster manager 4--><path d="M506.581,234.458 C516.549,256.085 531.403,288.312 541.383,309.964 " fill="none" id="cluster manager m1-cluster manager 4" style="stroke: #A80036; stroke-width: 1.0;"/><polygon fill="#A80036" points="543.559,314.686,543.4213,304.8381,541.4646,310.1458,536.1569,308.1891,543.559,314.686" style="stroke: #A80036; stroke-width: 1.0;"/><polygon fill="#A80036" points="504.384,229.69,504.518,239.5379,506.4767,234.231,511.7836,236.1897,504.384,229.69" style="stroke: #A80036; stroke-width: 1.0;"/><!--link cluster manager m2 to cluster manager 4--><path d="M350.416,231.435 C379.168,242.168 414.424,256.22 445,271 C470.626,283.387 498.405,299.571 519.235,312.298 " fill="none" id="cluster manager m2-cluster manager 4" style="stroke: #A80036; stroke-width: 1.0;"/><polygon fill="#A80036" points="523.572,314.959,517.9922,306.8432,519.3101,312.3444,513.8089,313.6623,523.572,314.959" style="stroke: #A80036; stroke-width: 1.0;"/><polygon fill="#A80036" points="345.494,229.606,352.5374,236.49,350.181,231.3474,355.3236,228.9909,345.494,229.606" style="stroke: #A80036; stroke-width: 1.0;"/><!--link cluster manager m1 to cluster manager 3--><path d="M445.561,231.388 C426.144,238.743 403.675,246.89 383,253.5 C354.503,262.61 346.047,260.587 318,271 C286.421,282.725 252.114,299.418 226.822,312.529 " fill="none" id="cluster manager m1-cluster manager 3" style="stroke: #A80036; stroke-width: 1.0;"/><polygon fill="#A80036" points="222.208,314.934,232.0379,314.3234,226.6424,312.624,228.3418,307.2284,222.208,314.934" style="stroke: #A80036; stroke-width: 1.0;"/><polygon fill="#A80036" points="450.428,229.537,440.5939,228.9975,445.7546,231.3144,443.4377,236.475,450.428,229.537" style="stroke: #A80036; stroke-width: 1.0;"/><!--link cluster manager m2 to cluster manager 3--><path d="M274.912,233.588 C256.006,255.465 227.21,288.786 208.248,310.727 " fill="none" id="cluster manager m2-cluster manager 3" style="stroke: #A80036; stroke-width: 1.0;"/><polygon fill="#A80036" points="204.827,314.686,213.7379,310.4912,208.096,310.9027,207.6845,305.2608,204.827,314.686" style="stroke: #A80036; stroke-width: 1.0;"/><polygon fill="#A80036" points="278.28,229.69,269.3691,233.8848,275.011,233.4733,275.4225,239.1152,278.28,229.69" style="stroke: #A80036; stroke-width: 1.0;"/><!--link cluster manager 2 to cluster manager m1--><path d="M630.53,101.291 C600.621,125.349 552.227,164.274 522.362,188.295 " fill="none" id="cluster manager 2-cluster manager m1" style="stroke: #A80036; stroke-width: 1.0;"/><polygon fill="#A80036" points="518.455,191.438,527.9747,188.9129,522.3507,188.3037,522.9598,182.6798,518.455,191.438" style="stroke: #A80036; stroke-width: 1.0;"/><polygon fill="#A80036" points="634.614,98.006,625.0938,100.529,630.7176,101.1394,630.1072,106.7632,634.614,98.006" style="stroke: #A80036; stroke-width: 1.0;"/><!--link cluster manager 2 to cluster manager m2--><path d="M611.786,100.038 C592.968,107.774 570.714,116.15 550,122 C487.872,139.546 467.881,126.023 407,147.5 C377.918,157.759 347.4,174.94 325.42,188.618 " fill="none" id="cluster manager 2-cluster manager m2" style="stroke: #A80036; stroke-width: 1.0;"/><polygon fill="#A80036" points="321.141,191.303,330.8903,189.9064,325.3759,188.6449,326.6374,183.1305,321.141,191.303" style="stroke: #A80036; stroke-width: 1.0;"/><polygon fill="#A80036" points="616.494,98.088,606.6483,97.8378,611.8748,100.0019,609.7106,105.2284,616.494,98.088" style="stroke: #A80036; stroke-width: 1.0;"/><!--link cluster manager 1 to cluster manager m1--><path d="M326.732,100.984 C364.365,125.11 425.77,164.477 463.363,188.577 " fill="none" id="cluster manager 1-cluster manager m1" style="stroke: #A80036; stroke-width: 1.0;"/><polygon fill="#A80036" points="467.826,191.438,462.4075,183.2136,463.6165,188.7398,458.0904,189.9488,467.826,191.438" style="stroke: #A80036; stroke-width: 1.0;"/><polygon fill="#A80036" points="322.087,98.006,327.5042,106.2312,326.296,100.7049,331.8224,99.4967,322.087,98.006" style="stroke: #A80036; stroke-width: 1.0;"/><!--link cluster manager 1 to cluster manager m2--><path d="M294,103.151 C294,126.58 294,162.61 294,186.12 " fill="none" id="cluster manager 1-cluster manager m2" style="stroke: #A80036; stroke-width: 1.0;"/><polygon fill="#A80036" points="294,191.229,298,182.229,294,186.229,290,182.229,294,191.229" style="stroke: #A80036; stroke-width: 1.0;"/><polygon fill="#A80036" points="294,98.006,290,107.006,294,103.006,298,107.006,294,98.006" style="stroke: #A80036; stroke-width: 1.0;"/><!--link cluster manager m1 to cluster manager m2--><path d="M418.228,197.004 C402.793,196.002 387.359,195.999 371.925,196.994 " fill="none" id="cluster manager m1-cluster manager m2" style="stroke: #A80036; stroke-width: 1.0;"/><polygon fill="#A80036" points="366.594,197.377,375.8577,200.7213,371.5811,197.0184,375.284,192.7419,366.594,197.377" style="stroke: #A80036; stroke-width: 1.0;"/><polygon fill="#A80036" points="423.462,197.382,414.7734,192.7444,418.475,197.022,414.1974,200.7236,423.462,197.382" style="stroke: #A80036; stroke-width: 1.0;"/><!--
@startuml

folder "node 1" {
    [java code 1] -left-> [cluster manager 1]: request
}

folder "node 2" {
    [java code 2] -left-> [cluster manager 2]: request
}

folder "node 3" {
    [java code 3] -left-> [cluster manager 3]: request
}

folder "node 4" {
    [java code 4] -left-> [cluster manager 4]: request
}

folder "master 1" {
    [java code m1] -left-> [cluster manager m1]: request
}

folder "master 2" {
    [java code m2] -right-> [cluster manager m2]: request
}

[cluster manager m1] <-down-> [cluster manager 4]
[cluster manager m2] <-down-> [cluster manager 4]
[cluster manager m1] <-down-> [cluster manager 3]
[cluster manager m2] <-down-> [cluster manager 3]
[cluster manager m1] <-up-> [cluster manager 2]
[cluster manager m2] <-up-> [cluster manager 2]
[cluster manager m1] <-up-> [cluster manager 1]
[cluster manager m2] <-up-> [cluster manager 1]

[cluster manager m1] <-> [cluster manager m2]

note bottom of [cluster manager 2]
  Each node sends information
  to the cluster using multicast.
end note

note bottom of [cluster manager 3]
  Every node receives the information
  sent by the others. Each maintains
  its own in-memory database.
end note

note left of [multicast]
Information about endpoints, groups & services
gets sent to a multicast address. It in turn
broadcasts the message to every node.
end note

note bottom of [java code 4]
The local java code gets information
about nodes, groups and services
by querrying the local cluster manager.
end note
@enduml

PlantUML version 1.2018.01(Sun Jan 28 19:08:22 CET 2018)
(APACHE source distribution)
Java Runtime: Java(TM) SE Runtime Environment
JVM: Java HotSpot(TM) 64-Bit Server VM
Java Version: 1.8.0_161-b12
Operating System: Windows 7
OS Version: 6.1
Default Encoding: UTF-8
Language: fr
Country: FR
--></g></svg>