<?xml version="1.0" encoding="UTF-8" standalone="no"?><svg xmlns="http://www.w3.org/2000/svg" xmlns:xlink="http://www.w3.org/1999/xlink" contentScriptType="application/ecmascript" contentStyleType="text/css" height="854px" preserveAspectRatio="none" style="width:448px;height:854px;" version="1.1" viewBox="0 0 448 854" width="448px" zoomAndPan="magnify"><defs><filter height="300%" id="f5v59jn06367h" width="300%" x="-1" y="-1"><feGaussianBlur result="blurOut" stdDeviation="2.0"/><feColorMatrix in="blurOut" result="blurOut2" type="matrix" values="0 0 0 0 0 0 0 0 0 0 0 0 0 0 0 0 0 0 .4 0"/><feOffset dx="4.0" dy="4.0" in="blurOut2" result="blurOut3"/><feBlend in="SourceGraphic" in2="blurOut3" mode="normal"/></filter></defs><g><line style="stroke: #A80036; stroke-width: 1.0; stroke-dasharray: 5.0,5.0;" x1="33" x2="33" y1="39.6094" y2="812.6406"/><line style="stroke: #A80036; stroke-width: 1.0; stroke-dasharray: 5.0,5.0;" x1="138" x2="138" y1="39.6094" y2="812.6406"/><line style="stroke: #A80036; stroke-width: 1.0; stroke-dasharray: 5.0,5.0;" x1="287" x2="287" y1="39.6094" y2="812.6406"/><rect fill="#FEFECE" filter="url(#f5v59jn06367h)" height="31.6094" style="stroke: #A80036; stroke-width: 1.5;" width="47" x="8" y="3"/><text fill="#000000" font-family="sans-serif" font-size="14" lengthAdjust="spacingAndGlyphs" textLength="33" x="15" y="24.5332">Node</text><rect fill="#FEFECE" filter="url(#f5v59jn06367h)" height="31.6094" style="stroke: #A80036; stroke-width: 1.5;" width="47" x="8" y="811.6406"/><text fill="#000000" font-family="sans-serif" font-size="14" lengthAdjust="spacingAndGlyphs" textLength="33" x="15" y="833.1738">Node</text><rect fill="#FEFECE" filter="url(#f5v59jn06367h)" height="31.6094" style="stroke: #A80036; stroke-width: 1.5;" width="57" x="108" y="3"/><text fill="#000000" font-family="sans-serif" font-size="14" lengthAdjust="spacingAndGlyphs" textLength="43" x="115" y="24.5332">Master</text><rect fill="#FEFECE" filter="url(#f5v59jn06367h)" height="31.6094" style="stroke: #A80036; stroke-width: 1.5;" width="57" x="108" y="811.6406"/><text fill="#000000" font-family="sans-serif" font-size="14" lengthAdjust="spacingAndGlyphs" textLength="43" x="115" y="833.1738">Master</text><rect fill="#FEFECE" filter="url(#f5v59jn06367h)" height="31.6094" style="stroke: #A80036; stroke-width: 1.5;" width="55" x="258" y="3"/><text fill="#000000" font-family="sans-serif" font-size="14" lengthAdjust="spacingAndGlyphs" textLength="41" x="265" y="24.5332">NodeX</text><rect fill="#FEFECE" filter="url(#f5v59jn06367h)" height="31.6094" style="stroke: #A80036; stroke-width: 1.5;" width="55" x="258" y="811.6406"/><text fill="#000000" font-family="sans-serif" font-size="14" lengthAdjust="spacingAndGlyphs" textLength="41" x="265" y="833.1738">NodeX</text><rect fill="#EEEEEE" filter="url(#f5v59jn06367h)" height="3" style="stroke: #EEEEEE; stroke-width: 1.0;" width="433.5" x="3" y="70.7852"/><line style="stroke: #000000; stroke-width: 1.0;" x1="3" x2="436.5" y1="70.7852" y2="70.7852"/><line style="stroke: #000000; stroke-width: 1.0;" x1="3" x2="436.5" y1="73.7852" y2="73.7852"/><rect fill="#EEEEEE" filter="url(#f5v59jn06367h)" height="24.3516" style="stroke: #000000; stroke-width: 2.0;" width="155" x="142.25" y="59.6094"/><text fill="#000000" font-family="sans-serif" font-size="13" font-weight="bold" lengthAdjust="spacingAndGlyphs" textLength="137" x="148.25" y="77.1045">Node joins the cluster</text><polygon fill="#A80036" points="126.5,111.9609,136.5,115.9609,126.5,119.9609,130.5,115.9609" style="stroke: #A80036; stroke-width: 1.0;"/><line style="stroke: #A80036; stroke-width: 1.0;" x1="33.5" x2="132.5" y1="115.9609" y2="115.9609"/><text fill="#000000" font-family="sans-serif" font-size="13" lengthAdjust="spacingAndGlyphs" textLength="58" x="40.5" y="111.4561">join(Node)</text><polygon fill="#A80036" points="44.5,142.3125,34.5,146.3125,44.5,150.3125,40.5,146.3125" style="stroke: #A80036; stroke-width: 1.0;"/><line style="stroke: #A80036; stroke-width: 1.0;" x1="38.5" x2="137.5" y1="146.3125" y2="146.3125"/><text fill="#000000" font-family="sans-serif" font-size="13" lengthAdjust="spacingAndGlyphs" textLength="76" x="50.5" y="141.8076">reply(Master)</text><line style="stroke: #A80036; stroke-width: 1.0;" x1="33.5" x2="75.5" y1="177.0156" y2="177.0156"/><line style="stroke: #A80036; stroke-width: 1.0;" x1="75.5" x2="75.5" y1="177.0156" y2="190.0156"/><line style="stroke: #A80036; stroke-width: 1.0;" x1="34.5" x2="75.5" y1="190.0156" y2="190.0156"/><polygon fill="#A80036" points="44.5,186.0156,34.5,190.0156,44.5,194.0156,40.5,190.0156" style="stroke: #A80036; stroke-width: 1.0;"/><text fill="#000000" font-family="sans-serif" font-size="13" lengthAdjust="spacingAndGlyphs" textLength="91" x="40.5" y="172.1592">register(Master)</text><polygon fill="#A80036" points="275.5,216.0156,285.5,220.0156,275.5,224.0156,279.5,220.0156" style="stroke: #A80036; stroke-width: 1.0;"/><line style="stroke: #A80036; stroke-width: 1.0;" x1="138.5" x2="281.5" y1="220.0156" y2="220.0156"/><text fill="#000000" font-family="sans-serif" font-size="13" lengthAdjust="spacingAndGlyphs" textLength="69" x="145.5" y="215.5107">notify(Node)</text><line style="stroke: #A80036; stroke-width: 1.0;" x1="287.5" x2="329.5" y1="250.7188" y2="250.7188"/><line style="stroke: #A80036; stroke-width: 1.0;" x1="329.5" x2="329.5" y1="250.7188" y2="263.7188"/><line style="stroke: #A80036; stroke-width: 1.0;" x1="288.5" x2="329.5" y1="263.7188" y2="263.7188"/><polygon fill="#A80036" points="298.5,259.7188,288.5,263.7188,298.5,267.7188,294.5,263.7188" style="stroke: #A80036; stroke-width: 1.0;"/><text fill="#000000" font-family="sans-serif" font-size="13" lengthAdjust="spacingAndGlyphs" textLength="103" x="294.5" y="245.8623">pre-register(Node)</text><polygon fill="#A80036" points="44.5,289.7188,34.5,293.7188,44.5,297.7188,40.5,293.7188" style="stroke: #A80036; stroke-width: 1.0;"/><line style="stroke: #A80036; stroke-width: 1.0;" x1="38.5" x2="286.5" y1="293.7188" y2="293.7188"/><text fill="#000000" font-family="sans-serif" font-size="13" lengthAdjust="spacingAndGlyphs" textLength="86" x="50.5" y="289.2139">forward(NodeX)</text><line style="stroke: #A80036; stroke-width: 1.0;" x1="33.5" x2="75.5" y1="324.4219" y2="324.4219"/><line style="stroke: #A80036; stroke-width: 1.0;" x1="75.5" x2="75.5" y1="324.4219" y2="337.4219"/><line style="stroke: #A80036; stroke-width: 1.0;" x1="34.5" x2="75.5" y1="337.4219" y2="337.4219"/><polygon fill="#A80036" points="44.5,333.4219,34.5,337.4219,44.5,341.4219,40.5,337.4219" style="stroke: #A80036; stroke-width: 1.0;"/><text fill="#000000" font-family="sans-serif" font-size="13" lengthAdjust="spacingAndGlyphs" textLength="88" x="40.5" y="319.5654">register(NodeX)</text><polygon fill="#A80036" points="275.5,363.4219,285.5,367.4219,275.5,371.4219,279.5,367.4219" style="stroke: #A80036; stroke-width: 1.0;"/><line style="stroke: #A80036; stroke-width: 1.0;" x1="33.5" x2="281.5" y1="367.4219" y2="367.4219"/><text fill="#000000" font-family="sans-serif" font-size="13" lengthAdjust="spacingAndGlyphs" textLength="66" x="40.5" y="362.917">reply(Node)</text><line style="stroke: #A80036; stroke-width: 1.0;" x1="287.5" x2="329.5" y1="398.125" y2="398.125"/><line style="stroke: #A80036; stroke-width: 1.0;" x1="329.5" x2="329.5" y1="398.125" y2="411.125"/><line style="stroke: #A80036; stroke-width: 1.0;" x1="288.5" x2="329.5" y1="411.125" y2="411.125"/><polygon fill="#A80036" points="298.5,407.125,288.5,411.125,298.5,415.125,294.5,411.125" style="stroke: #A80036; stroke-width: 1.0;"/><text fill="#000000" font-family="sans-serif" font-size="13" lengthAdjust="spacingAndGlyphs" textLength="81" x="294.5" y="393.2686">register(Node)</text><rect fill="#EEEEEE" filter="url(#f5v59jn06367h)" height="3" style="stroke: #EEEEEE; stroke-width: 1.0;" width="433.5" x="3" y="440.3008"/><line style="stroke: #000000; stroke-width: 1.0;" x1="3" x2="436.5" y1="440.3008" y2="440.3008"/><line style="stroke: #000000; stroke-width: 1.0;" x1="3" x2="436.5" y1="443.3008" y2="443.3008"/><rect fill="#EEEEEE" filter="url(#f5v59jn06367h)" height="24.3516" style="stroke: #000000; stroke-width: 2.0;" width="146" x="146.75" y="429.125"/><text fill="#000000" font-family="sans-serif" font-size="13" font-weight="bold" lengthAdjust="spacingAndGlyphs" textLength="128" x="152.75" y="446.6201">Node says he's alive</text><polygon fill="#A80036" points="126.5,481.4766,136.5,485.4766,126.5,489.4766,130.5,485.4766" style="stroke: #A80036; stroke-width: 1.0;"/><line style="stroke: #A80036; stroke-width: 1.0;" x1="33.5" x2="132.5" y1="485.4766" y2="485.4766"/><text fill="#000000" font-family="sans-serif" font-size="13" lengthAdjust="spacingAndGlyphs" textLength="63" x="40.5" y="480.9717">alive(Node)</text><line style="stroke: #A80036; stroke-width: 1.0;" x1="138.5" x2="180.5" y1="516.1797" y2="516.1797"/><line style="stroke: #A80036; stroke-width: 1.0;" x1="180.5" x2="180.5" y1="516.1797" y2="529.1797"/><line style="stroke: #A80036; stroke-width: 1.0;" x1="139.5" x2="180.5" y1="529.1797" y2="529.1797"/><polygon fill="#A80036" points="149.5,525.1797,139.5,529.1797,149.5,533.1797,145.5,529.1797" style="stroke: #A80036; stroke-width: 1.0;"/><text fill="#000000" font-family="sans-serif" font-size="13" lengthAdjust="spacingAndGlyphs" textLength="135" x="145.5" y="511.3232">updateExpiration(Node)</text><polygon fill="#A80036" points="275.5,555.1797,285.5,559.1797,275.5,563.1797,279.5,559.1797" style="stroke: #A80036; stroke-width: 1.0;"/><line style="stroke: #A80036; stroke-width: 1.0;" x1="33.5" x2="281.5" y1="559.1797" y2="559.1797"/><text fill="#000000" font-family="sans-serif" font-size="13" lengthAdjust="spacingAndGlyphs" textLength="63" x="40.5" y="554.6748">alive(Node)</text><line style="stroke: #A80036; stroke-width: 1.0;" x1="287.5" x2="329.5" y1="589.8828" y2="589.8828"/><line style="stroke: #A80036; stroke-width: 1.0;" x1="329.5" x2="329.5" y1="589.8828" y2="602.8828"/><line style="stroke: #A80036; stroke-width: 1.0;" x1="288.5" x2="329.5" y1="602.8828" y2="602.8828"/><polygon fill="#A80036" points="298.5,598.8828,288.5,602.8828,298.5,606.8828,294.5,602.8828" style="stroke: #A80036; stroke-width: 1.0;"/><text fill="#000000" font-family="sans-serif" font-size="13" lengthAdjust="spacingAndGlyphs" textLength="135" x="294.5" y="585.0264">updateExpiration(Node)</text><rect fill="#EEEEEE" filter="url(#f5v59jn06367h)" height="3" style="stroke: #EEEEEE; stroke-width: 1.0;" width="433.5" x="3" y="632.0586"/><line style="stroke: #000000; stroke-width: 1.0;" x1="3" x2="436.5" y1="632.0586" y2="632.0586"/><line style="stroke: #000000; stroke-width: 1.0;" x1="3" x2="436.5" y1="635.0586" y2="635.0586"/><rect fill="#EEEEEE" filter="url(#f5v59jn06367h)" height="24.3516" style="stroke: #000000; stroke-width: 2.0;" width="166" x="136.75" y="620.8828"/><text fill="#000000" font-family="sans-serif" font-size="13" font-weight="bold" lengthAdjust="spacingAndGlyphs" textLength="148" x="142.75" y="638.3779">Node leaves the cluster</text><polygon fill="#A80036" points="126.5,673.2344,136.5,677.2344,126.5,681.2344,130.5,677.2344" style="stroke: #A80036; stroke-width: 1.0;"/><line style="stroke: #A80036; stroke-width: 1.0;" x1="33.5" x2="132.5" y1="677.2344" y2="677.2344"/><text fill="#000000" font-family="sans-serif" font-size="13" lengthAdjust="spacingAndGlyphs" textLength="67" x="40.5" y="672.7295">leave(Node)</text><line style="stroke: #A80036; stroke-width: 1.0;" x1="138.5" x2="180.5" y1="707.9375" y2="707.9375"/><line style="stroke: #A80036; stroke-width: 1.0;" x1="180.5" x2="180.5" y1="707.9375" y2="720.9375"/><line style="stroke: #A80036; stroke-width: 1.0;" x1="139.5" x2="180.5" y1="720.9375" y2="720.9375"/><polygon fill="#A80036" points="149.5,716.9375,139.5,720.9375,149.5,724.9375,145.5,720.9375" style="stroke: #A80036; stroke-width: 1.0;"/><text fill="#000000" font-family="sans-serif" font-size="13" lengthAdjust="spacingAndGlyphs" textLength="102" x="145.5" y="703.0811">unregister(Node1)</text><polygon fill="#A80036" points="275.5,746.9375,285.5,750.9375,275.5,754.9375,279.5,750.9375" style="stroke: #A80036; stroke-width: 1.0;"/><line style="stroke: #A80036; stroke-width: 1.0;" x1="33.5" x2="281.5" y1="750.9375" y2="750.9375"/><text fill="#000000" font-family="sans-serif" font-size="13" lengthAdjust="spacingAndGlyphs" textLength="67" x="40.5" y="746.4326">leave(Node)</text><line style="stroke: #A80036; stroke-width: 1.0;" x1="287.5" x2="329.5" y1="781.6406" y2="781.6406"/><line style="stroke: #A80036; stroke-width: 1.0;" x1="329.5" x2="329.5" y1="781.6406" y2="794.6406"/><line style="stroke: #A80036; stroke-width: 1.0;" x1="288.5" x2="329.5" y1="794.6406" y2="794.6406"/><polygon fill="#A80036" points="298.5,790.6406,288.5,794.6406,298.5,798.6406,294.5,794.6406" style="stroke: #A80036; stroke-width: 1.0;"/><text fill="#000000" font-family="sans-serif" font-size="13" lengthAdjust="spacingAndGlyphs" textLength="102" x="294.5" y="776.7842">unregister(Node1)</text><!--
@startuml
== Node joins the cluster ==
Node->Master : join(Node)
Master->Node: reply(Master)
Node->Node: register(Master)
Master->NodeX: notify(Node)
NodeX->NodeX: pre-register(Node)
NodeX->Node : forward(NodeX)
Node->Node : register(NodeX)
Node->NodeX : reply(Node)
NodeX->NodeX : register(Node)
== Node says he's alive ==
Node->Master: alive(Node)
Master->Master : updateExpiration(Node)
Node->NodeX: alive(Node)
NodeX->NodeX : updateExpiration(Node)
== Node leaves the cluster ==
Node->Master : leave(Node)
Master->Master : unregister(Node1)
Node->NodeX : leave(Node)
NodeX->NodeX : unregister(Node1)
@enduml

PlantUML version 1.2018.01(Sun Jan 28 19:08:22 CET 2018)
(APACHE source distribution)
Java Runtime: Java(TM) SE Runtime Environment
JVM: Java HotSpot(TM) 64-Bit Server VM
Java Version: 1.8.0_161-b12
Operating System: Windows 7
OS Version: 6.1
Default Encoding: UTF-8
Language: fr
Country: FR
--></g></svg>