<?xml version="1.0" encoding="UTF-8" standalone="no"?><svg xmlns="http://www.w3.org/2000/svg" xmlns:xlink="http://www.w3.org/1999/xlink" contentScriptType="application/ecmascript" contentStyleType="text/css" height="650px" preserveAspectRatio="none" style="width:414px;height:650px;" version="1.1" viewBox="0 0 414 650" width="414px" zoomAndPan="magnify"><defs><filter height="300%" id="fw51u4q330lri" width="300%" x="-1" y="-1"><feGaussianBlur result="blurOut" stdDeviation="2.0"/><feColorMatrix in="blurOut" result="blurOut2" type="matrix" values="0 0 0 0 0 0 0 0 0 0 0 0 0 0 0 0 0 0 .4 0"/><feOffset dx="4.0" dy="4.0" in="blurOut2" result="blurOut3"/><feBlend in="SourceGraphic" in2="blurOut3" mode="normal"/></filter></defs><g><line style="stroke: #A80036; stroke-width: 1.0; stroke-dasharray: 5.0,5.0;" x1="33" x2="33" y1="39.6094" y2="608.8828"/><line style="stroke: #A80036; stroke-width: 1.0; stroke-dasharray: 5.0,5.0;" x1="143" x2="143" y1="39.6094" y2="608.8828"/><line style="stroke: #A80036; stroke-width: 1.0; stroke-dasharray: 5.0,5.0;" x1="253" x2="253" y1="39.6094" y2="608.8828"/><rect fill="#FEFECE" filter="url(#fw51u4q330lri)" height="31.6094" style="stroke: #A80036; stroke-width: 1.5;" width="47" x="8" y="3"/><text fill="#000000" font-family="sans-serif" font-size="14" lengthAdjust="spacingAndGlyphs" textLength="33" x="15" y="24.5332">Node</text><rect fill="#FEFECE" filter="url(#fw51u4q330lri)" height="31.6094" style="stroke: #A80036; stroke-width: 1.5;" width="47" x="8" y="607.8828"/><text fill="#000000" font-family="sans-serif" font-size="14" lengthAdjust="spacingAndGlyphs" textLength="33" x="15" y="629.416">Node</text><rect fill="#FEFECE" filter="url(#fw51u4q330lri)" height="31.6094" style="stroke: #A80036; stroke-width: 1.5;" width="69" x="107" y="3"/><text fill="#000000" font-family="sans-serif" font-size="14" lengthAdjust="spacingAndGlyphs" textLength="55" x="114" y="24.5332">multicast</text><rect fill="#FEFECE" filter="url(#fw51u4q330lri)" height="31.6094" style="stroke: #A80036; stroke-width: 1.5;" width="69" x="107" y="607.8828"/><text fill="#000000" font-family="sans-serif" font-size="14" lengthAdjust="spacingAndGlyphs" textLength="55" x="114" y="629.416">multicast</text><rect fill="#FEFECE" filter="url(#fw51u4q330lri)" height="31.6094" style="stroke: #A80036; stroke-width: 1.5;" width="55" x="224" y="3"/><text fill="#000000" font-family="sans-serif" font-size="14" lengthAdjust="spacingAndGlyphs" textLength="41" x="231" y="24.5332">NodeX</text><rect fill="#FEFECE" filter="url(#fw51u4q330lri)" height="31.6094" style="stroke: #A80036; stroke-width: 1.5;" width="55" x="224" y="607.8828"/><text fill="#000000" font-family="sans-serif" font-size="14" lengthAdjust="spacingAndGlyphs" textLength="41" x="231" y="629.416">NodeX</text><rect fill="#EEEEEE" filter="url(#fw51u4q330lri)" height="3" style="stroke: #EEEEEE; stroke-width: 1.0;" width="399.5" x="3" y="70.7852"/><line style="stroke: #000000; stroke-width: 1.0;" x1="3" x2="402.5" y1="70.7852" y2="70.7852"/><line style="stroke: #000000; stroke-width: 1.0;" x1="3" x2="402.5" y1="73.7852" y2="73.7852"/><rect fill="#EEEEEE" filter="url(#fw51u4q330lri)" height="24.3516" style="stroke: #000000; stroke-width: 2.0;" width="155" x="125.25" y="59.6094"/><text fill="#000000" font-family="sans-serif" font-size="13" font-weight="bold" lengthAdjust="spacingAndGlyphs" textLength="137" x="131.25" y="77.1045">Node joins the cluster</text><polygon fill="#A80036" points="131.5,111.9609,141.5,115.9609,131.5,119.9609,135.5,115.9609" style="stroke: #A80036; stroke-width: 1.0;"/><line style="stroke: #A80036; stroke-width: 1.0;" x1="33.5" x2="137.5" y1="115.9609" y2="115.9609"/><text fill="#000000" font-family="sans-serif" font-size="13" lengthAdjust="spacingAndGlyphs" textLength="58" x="40.5" y="111.4561">join(Node)</text><polygon fill="#A80036" points="241.5,142.3125,251.5,146.3125,241.5,150.3125,245.5,146.3125" style="stroke: #A80036; stroke-width: 1.0;"/><line style="stroke: #A80036; stroke-width: 1.0;" x1="143.5" x2="247.5" y1="146.3125" y2="146.3125"/><text fill="#000000" font-family="sans-serif" font-size="13" lengthAdjust="spacingAndGlyphs" textLength="58" x="150.5" y="141.8076">join(Node)</text><line style="stroke: #A80036; stroke-width: 1.0;" x1="253.5" x2="295.5" y1="177.0156" y2="177.0156"/><line style="stroke: #A80036; stroke-width: 1.0;" x1="295.5" x2="295.5" y1="177.0156" y2="190.0156"/><line style="stroke: #A80036; stroke-width: 1.0;" x1="254.5" x2="295.5" y1="190.0156" y2="190.0156"/><polygon fill="#A80036" points="264.5,186.0156,254.5,190.0156,264.5,194.0156,260.5,190.0156" style="stroke: #A80036; stroke-width: 1.0;"/><text fill="#000000" font-family="sans-serif" font-size="13" lengthAdjust="spacingAndGlyphs" textLength="81" x="260.5" y="172.1592">register(Node)</text><polygon fill="#A80036" points="154.5,216.0156,144.5,220.0156,154.5,224.0156,150.5,220.0156" style="stroke: #A80036; stroke-width: 1.0;"/><line style="stroke: #A80036; stroke-width: 1.0;" x1="148.5" x2="252.5" y1="220.0156" y2="220.0156"/><text fill="#000000" font-family="sans-serif" font-size="13" lengthAdjust="spacingAndGlyphs" textLength="86" x="160.5" y="215.5107">forward(NodeX)</text><polygon fill="#A80036" points="44.5,246.3672,34.5,250.3672,44.5,254.3672,40.5,250.3672" style="stroke: #A80036; stroke-width: 1.0;"/><line style="stroke: #A80036; stroke-width: 1.0;" x1="38.5" x2="142.5" y1="250.3672" y2="250.3672"/><text fill="#000000" font-family="sans-serif" font-size="13" lengthAdjust="spacingAndGlyphs" textLength="86" x="50.5" y="245.8623">forward(NodeX)</text><line style="stroke: #A80036; stroke-width: 1.0;" x1="33.5" x2="75.5" y1="281.0703" y2="281.0703"/><line style="stroke: #A80036; stroke-width: 1.0;" x1="75.5" x2="75.5" y1="281.0703" y2="294.0703"/><line style="stroke: #A80036; stroke-width: 1.0;" x1="34.5" x2="75.5" y1="294.0703" y2="294.0703"/><polygon fill="#A80036" points="44.5,290.0703,34.5,294.0703,44.5,298.0703,40.5,294.0703" style="stroke: #A80036; stroke-width: 1.0;"/><text fill="#000000" font-family="sans-serif" font-size="13" lengthAdjust="spacingAndGlyphs" textLength="88" x="40.5" y="276.2139">register(NodeX)</text><rect fill="#EEEEEE" filter="url(#fw51u4q330lri)" height="3" style="stroke: #EEEEEE; stroke-width: 1.0;" width="399.5" x="3" y="323.2461"/><line style="stroke: #000000; stroke-width: 1.0;" x1="3" x2="402.5" y1="323.2461" y2="323.2461"/><line style="stroke: #000000; stroke-width: 1.0;" x1="3" x2="402.5" y1="326.2461" y2="326.2461"/><rect fill="#EEEEEE" filter="url(#fw51u4q330lri)" height="24.3516" style="stroke: #000000; stroke-width: 2.0;" width="146" x="129.75" y="312.0703"/><text fill="#000000" font-family="sans-serif" font-size="13" font-weight="bold" lengthAdjust="spacingAndGlyphs" textLength="128" x="135.75" y="329.5654">Node says he's alive</text><polygon fill="#A80036" points="131.5,364.4219,141.5,368.4219,131.5,372.4219,135.5,368.4219" style="stroke: #A80036; stroke-width: 1.0;"/><line style="stroke: #A80036; stroke-width: 1.0;" x1="33.5" x2="137.5" y1="368.4219" y2="368.4219"/><text fill="#000000" font-family="sans-serif" font-size="13" lengthAdjust="spacingAndGlyphs" textLength="79" x="40.5" y="363.917">forward(Node)</text><polygon fill="#A80036" points="241.5,394.7734,251.5,398.7734,241.5,402.7734,245.5,398.7734" style="stroke: #A80036; stroke-width: 1.0;"/><line style="stroke: #A80036; stroke-width: 1.0;" x1="143.5" x2="247.5" y1="398.7734" y2="398.7734"/><text fill="#000000" font-family="sans-serif" font-size="13" lengthAdjust="spacingAndGlyphs" textLength="79" x="150.5" y="394.2686">forward(Node)</text><line style="stroke: #A80036; stroke-width: 1.0;" x1="253.5" x2="295.5" y1="429.4766" y2="429.4766"/><line style="stroke: #A80036; stroke-width: 1.0;" x1="295.5" x2="295.5" y1="429.4766" y2="442.4766"/><line style="stroke: #A80036; stroke-width: 1.0;" x1="254.5" x2="295.5" y1="442.4766" y2="442.4766"/><polygon fill="#A80036" points="264.5,438.4766,254.5,442.4766,264.5,446.4766,260.5,442.4766" style="stroke: #A80036; stroke-width: 1.0;"/><text fill="#000000" font-family="sans-serif" font-size="13" lengthAdjust="spacingAndGlyphs" textLength="135" x="260.5" y="424.6201">updateExpiration(Node)</text><rect fill="#EEEEEE" filter="url(#fw51u4q330lri)" height="3" style="stroke: #EEEEEE; stroke-width: 1.0;" width="399.5" x="3" y="471.6523"/><line style="stroke: #000000; stroke-width: 1.0;" x1="3" x2="402.5" y1="471.6523" y2="471.6523"/><line style="stroke: #000000; stroke-width: 1.0;" x1="3" x2="402.5" y1="474.6523" y2="474.6523"/><rect fill="#EEEEEE" filter="url(#fw51u4q330lri)" height="24.3516" style="stroke: #000000; stroke-width: 2.0;" width="166" x="119.75" y="460.4766"/><text fill="#000000" font-family="sans-serif" font-size="13" font-weight="bold" lengthAdjust="spacingAndGlyphs" textLength="148" x="125.75" y="477.9717">Node leaves the cluster</text><polygon fill="#A80036" points="131.5,512.8281,141.5,516.8281,131.5,520.8281,135.5,516.8281" style="stroke: #A80036; stroke-width: 1.0;"/><line style="stroke: #A80036; stroke-width: 1.0;" x1="33.5" x2="137.5" y1="516.8281" y2="516.8281"/><text fill="#000000" font-family="sans-serif" font-size="13" lengthAdjust="spacingAndGlyphs" textLength="74" x="40.5" y="512.3232">leaves(Node)</text><polygon fill="#A80036" points="241.5,543.1797,251.5,547.1797,241.5,551.1797,245.5,547.1797" style="stroke: #A80036; stroke-width: 1.0;"/><line style="stroke: #A80036; stroke-width: 1.0;" x1="143.5" x2="247.5" y1="547.1797" y2="547.1797"/><text fill="#000000" font-family="sans-serif" font-size="13" lengthAdjust="spacingAndGlyphs" textLength="74" x="150.5" y="542.6748">leaves(Node)</text><line style="stroke: #A80036; stroke-width: 1.0;" x1="253.5" x2="295.5" y1="577.8828" y2="577.8828"/><line style="stroke: #A80036; stroke-width: 1.0;" x1="295.5" x2="295.5" y1="577.8828" y2="590.8828"/><line style="stroke: #A80036; stroke-width: 1.0;" x1="254.5" x2="295.5" y1="590.8828" y2="590.8828"/><polygon fill="#A80036" points="264.5,586.8828,254.5,590.8828,264.5,594.8828,260.5,590.8828" style="stroke: #A80036; stroke-width: 1.0;"/><text fill="#000000" font-family="sans-serif" font-size="13" lengthAdjust="spacingAndGlyphs" textLength="95" x="260.5" y="573.0264">unregister(Node)</text><!--
@startuml
== Node joins the cluster ==
Node->multicast : join(Node)
multicast->NodeX : join(Node)
NodeX->NodeX : register(Node)
NodeX->multicast : forward(NodeX)
multicast->Node: forward(NodeX)
Node->Node: register(NodeX)
== Node says he's alive ==
Node->multicast: forward(Node)
multicast->NodeX : forward(Node)
NodeX->NodeX : updateExpiration(Node)
== Node leaves the cluster ==
Node->multicast : leaves(Node)
multicast->NodeX: leaves(Node)
NodeX->NodeX : unregister(Node)
@enduml

PlantUML version 1.2018.01(Sun Jan 28 19:08:22 CET 2018)
(APACHE source distribution)
Java Runtime: Java(TM) SE Runtime Environment
JVM: Java HotSpot(TM) 64-Bit Server VM
Java Version: 1.8.0_161-b12
Operating System: Windows 7
OS Version: 6.1
Default Encoding: UTF-8
Language: fr
Country: FR
--></g></svg>