<?xml version="1.0" encoding="UTF-8" standalone="no"?><svg xmlns="http://www.w3.org/2000/svg" xmlns:xlink="http://www.w3.org/1999/xlink" contentScriptType="application/ecmascript" contentStyleType="text/css" height="476px" preserveAspectRatio="none" style="width:925px;height:476px;" version="1.1" viewBox="0 0 925 476" width="925px" zoomAndPan="magnify"><defs><filter height="300%" id="fubqy37279ewp" width="300%" x="-1" y="-1"><feGaussianBlur result="blurOut" stdDeviation="2.0"/><feColorMatrix in="blurOut" result="blurOut2" type="matrix" values="0 0 0 0 0 0 0 0 0 0 0 0 0 0 0 0 0 0 .4 0"/><feOffset dx="4.0" dy="4.0" in="blurOut2" result="blurOut3"/><feBlend in="SourceGraphic" in2="blurOut3" mode="normal"/></filter></defs><g><!--cluster node 1--><polygon fill="#FFFFFF" filter="url(#fubqy37279ewp)" points="137.5,24,191.5,24,198.5,47.6094,476.5,47.6094,476.5,114,137.5,114,137.5,24" style="stroke: #000000; stroke-width: 1.5;"/><line style="stroke: #000000; stroke-width: 1.5;" x1="137.5" x2="198.5" y1="47.6094" y2="47.6094"/><text fill="#000000" font-family="sans-serif" font-size="14" font-weight="bold" lengthAdjust="spacingAndGlyphs" textLength="48" x="141.5" y="40.5332">node 1</text><!--cluster node 2--><polygon fill="#FFFFFF" filter="url(#fubqy37279ewp)" points="500.5,24,554.5,24,561.5,47.6094,839.5,47.6094,839.5,114,500.5,114,500.5,24" style="stroke: #000000; stroke-width: 1.5;"/><line style="stroke: #000000; stroke-width: 1.5;" x1="500.5" x2="561.5" y1="47.6094" y2="47.6094"/><text fill="#000000" font-family="sans-serif" font-size="14" font-weight="bold" lengthAdjust="spacingAndGlyphs" textLength="48" x="504.5" y="40.5332">node 2</text><!--cluster node 3--><polygon fill="#FFFFFF" filter="url(#fubqy37279ewp)" points="147.5,268,201.5,268,208.5,291.6094,486.5,291.6094,486.5,358,147.5,358,147.5,268" style="stroke: #000000; stroke-width: 1.5;"/><line style="stroke: #000000; stroke-width: 1.5;" x1="147.5" x2="208.5" y1="291.6094" y2="291.6094"/><text fill="#000000" font-family="sans-serif" font-size="14" font-weight="bold" lengthAdjust="spacingAndGlyphs" textLength="48" x="151.5" y="284.5332">node 3</text><!--cluster node 4--><polygon fill="#FFFFFF" filter="url(#fubqy37279ewp)" points="510.5,268,564.5,268,571.5,291.6094,849.5,291.6094,849.5,358,510.5,358,510.5,268" style="stroke: #000000; stroke-width: 1.5;"/><line style="stroke: #000000; stroke-width: 1.5;" x1="510.5" x2="571.5" y1="291.6094" y2="291.6094"/><text fill="#000000" font-family="sans-serif" font-size="14" font-weight="bold" lengthAdjust="spacingAndGlyphs" textLength="48" x="514.5" y="284.5332">node 4</text><!--entity java code 1--><rect fill="#FEFECE" filter="url(#fubqy37279ewp)" height="37.6094" style="stroke: #A80036; stroke-width: 1.5;" width="93" x="367" y="60"/><rect fill="#FEFECE" height="5" style="stroke: #A80036; stroke-width: 1.5;" width="10" x="362" y="65"/><rect fill="#FEFECE" height="5" style="stroke: #A80036; stroke-width: 1.5;" width="10" x="362" y="87.6094"/><text fill="#000000" font-family="sans-serif" font-size="14" lengthAdjust="spacingAndGlyphs" textLength="73" x="377" y="84.5332">java code 1</text><!--entity cluster manager 1--><rect fill="#FEFECE" filter="url(#fubqy37279ewp)" height="37.6094" style="stroke: #A80036; stroke-width: 1.5;" width="134" x="153.5" y="60"/><rect fill="#FEFECE" height="5" style="stroke: #A80036; stroke-width: 1.5;" width="10" x="148.5" y="65"/><rect fill="#FEFECE" height="5" style="stroke: #A80036; stroke-width: 1.5;" width="10" x="148.5" y="87.6094"/><text fill="#000000" font-family="sans-serif" font-size="14" lengthAdjust="spacingAndGlyphs" textLength="114" x="163.5" y="84.5332">cluster manager 1</text><!--entity java code 2--><rect fill="#FEFECE" filter="url(#fubqy37279ewp)" height="37.6094" style="stroke: #A80036; stroke-width: 1.5;" width="93" x="730" y="60"/><rect fill="#FEFECE" height="5" style="stroke: #A80036; stroke-width: 1.5;" width="10" x="725" y="65"/><rect fill="#FEFECE" height="5" style="stroke: #A80036; stroke-width: 1.5;" width="10" x="725" y="87.6094"/><text fill="#000000" font-family="sans-serif" font-size="14" lengthAdjust="spacingAndGlyphs" textLength="73" x="740" y="84.5332">java code 2</text><!--entity cluster manager 2--><rect fill="#FEFECE" filter="url(#fubqy37279ewp)" height="37.6094" style="stroke: #A80036; stroke-width: 1.5;" width="134" x="516.5" y="60"/><rect fill="#FEFECE" height="5" style="stroke: #A80036; stroke-width: 1.5;" width="10" x="511.5" y="65"/><rect fill="#FEFECE" height="5" style="stroke: #A80036; stroke-width: 1.5;" width="10" x="511.5" y="87.6094"/><text fill="#000000" font-family="sans-serif" font-size="14" lengthAdjust="spacingAndGlyphs" textLength="114" x="526.5" y="84.5332">cluster manager 2</text><!--entity java code 3--><rect fill="#FEFECE" filter="url(#fubqy37279ewp)" height="37.6094" style="stroke: #A80036; stroke-width: 1.5;" width="93" x="377" y="304"/><rect fill="#FEFECE" height="5" style="stroke: #A80036; stroke-width: 1.5;" width="10" x="372" y="309"/><rect fill="#FEFECE" height="5" style="stroke: #A80036; stroke-width: 1.5;" width="10" x="372" y="331.6094"/><text fill="#000000" font-family="sans-serif" font-size="14" lengthAdjust="spacingAndGlyphs" textLength="73" x="387" y="328.5332">java code 3</text><!--entity cluster manager 3--><rect fill="#FEFECE" filter="url(#fubqy37279ewp)" height="37.6094" style="stroke: #A80036; stroke-width: 1.5;" width="134" x="163.5" y="304"/><rect fill="#FEFECE" height="5" style="stroke: #A80036; stroke-width: 1.5;" width="10" x="158.5" y="309"/><rect fill="#FEFECE" height="5" style="stroke: #A80036; stroke-width: 1.5;" width="10" x="158.5" y="331.6094"/><text fill="#000000" font-family="sans-serif" font-size="14" lengthAdjust="spacingAndGlyphs" textLength="114" x="173.5" y="328.5332">cluster manager 3</text><!--entity java code 4--><rect fill="#FEFECE" filter="url(#fubqy37279ewp)" height="37.6094" style="stroke: #A80036; stroke-width: 1.5;" width="93" x="740" y="304"/><rect fill="#FEFECE" height="5" style="stroke: #A80036; stroke-width: 1.5;" width="10" x="735" y="309"/><rect fill="#FEFECE" height="5" style="stroke: #A80036; stroke-width: 1.5;" width="10" x="735" y="331.6094"/><text fill="#000000" font-family="sans-serif" font-size="14" lengthAdjust="spacingAndGlyphs" textLength="73" x="750" y="328.5332">java code 4</text><!--entity cluster manager 4--><rect fill="#FEFECE" filter="url(#fubqy37279ewp)" height="37.6094" style="stroke: #A80036; stroke-width: 1.5;" width="134" x="526.5" y="304"/><rect fill="#FEFECE" height="5" style="stroke: #A80036; stroke-width: 1.5;" width="10" x="521.5" y="309"/><rect fill="#FEFECE" height="5" style="stroke: #A80036; stroke-width: 1.5;" width="10" x="521.5" y="331.6094"/><text fill="#000000" font-family="sans-serif" font-size="14" lengthAdjust="spacingAndGlyphs" textLength="114" x="536.5" y="328.5332">cluster manager 4</text><!--entity multicast--><ellipse cx="379.5" cy="191" fill="#FEFECE" filter="url(#fubqy37279ewp)" rx="8" ry="8" style="stroke: #A80036; stroke-width: 2.0;"/><text fill="#000000" font-family="sans-serif" font-size="14" lengthAdjust="spacingAndGlyphs" textLength="55" x="352" y="222.5332">multicast</text><path d="M480,169.5 L480,212.2031 A0,0 0 0 0 480,212.2031 L687,212.2031 A0,0 0 0 0 687,212.2031 L687,179.5 L677,169.5 L587.5,169.5 L583.5,98.164 L579.5,169.5 L480,169.5 A0,0 0 0 0 480,169.5 " fill="#FBFB77" filter="url(#fubqy37279ewp)" style="stroke: #A80036; stroke-width: 1.0;"/><path d="M677,169.5 L677,179.5 L687,179.5 L677,169.5 " fill="#FBFB77" style="stroke: #A80036; stroke-width: 1.0;"/><text fill="#000000" font-family="sans-serif" font-size="13" lengthAdjust="spacingAndGlyphs" textLength="186" x="486" y="187.9951">Each node sends its information</text><text fill="#000000" font-family="sans-serif" font-size="13" lengthAdjust="spacingAndGlyphs" textLength="172" x="486" y="204.3467">to the cluster using multicast.</text><path d="M67.5,413 L67.5,455.7031 A0,0 0 0 0 67.5,455.7031 L393.5,455.7031 A0,0 0 0 0 393.5,455.7031 L393.5,423 L383.5,413 L234.5,413 L230.5,342.082 L226.5,413 L67.5,413 A0,0 0 0 0 67.5,413 " fill="#FBFB77" filter="url(#fubqy37279ewp)" style="stroke: #A80036; stroke-width: 1.0;"/><path d="M383.5,413 L383.5,423 L393.5,423 L383.5,413 " fill="#FBFB77" style="stroke: #A80036; stroke-width: 1.0;"/><text fill="#000000" font-family="sans-serif" font-size="13" lengthAdjust="spacingAndGlyphs" textLength="305" x="73.5" y="431.4951">Every node receives information sent by other nodes.</text><text fill="#000000" font-family="sans-serif" font-size="13" lengthAdjust="spacingAndGlyphs" textLength="293" x="73.5" y="447.8467">Each node maintains its own in-memory database.</text><path d="M6,161.5 L6,220.5547 A0,0 0 0 0 6,220.5547 L309,220.5547 A0,0 0 0 0 309,220.5547 L309,195 L370.186,191 L309,187 L309,171.5 L299,161.5 L6,161.5 A0,0 0 0 0 6,161.5 " fill="#FBFB77" filter="url(#fubqy37279ewp)" style="stroke: #A80036; stroke-width: 1.0;"/><path d="M299,161.5 L299,171.5 L309,171.5 L299,161.5 " fill="#FBFB77" style="stroke: #A80036; stroke-width: 1.0;"/><text fill="#000000" font-family="sans-serif" font-size="13" lengthAdjust="spacingAndGlyphs" textLength="282" x="12" y="179.9951">Information about endpoints, groups and services</text><text fill="#000000" font-family="sans-serif" font-size="13" lengthAdjust="spacingAndGlyphs" textLength="277" x="12" y="196.3467">is sent to a multicast address that broadcasts it</text><text fill="#000000" font-family="sans-serif" font-size="13" lengthAdjust="spacingAndGlyphs" textLength="71" x="12" y="212.6982">to all nodes.</text><path d="M660,405 L660,464.0547 A0,0 0 0 0 660,464.0547 L913,464.0547 A0,0 0 0 0 913,464.0547 L913,415 L903,405 L790.5,405 L786.5,342.082 L782.5,405 L660,405 A0,0 0 0 0 660,405 " fill="#FBFB77" filter="url(#fubqy37279ewp)" style="stroke: #A80036; stroke-width: 1.0;"/><path d="M903,405 L903,415 L913,415 L903,405 " fill="#FBFB77" style="stroke: #A80036; stroke-width: 1.0;"/><text fill="#000000" font-family="sans-serif" font-size="13" lengthAdjust="spacingAndGlyphs" textLength="224" x="666" y="423.4951">The local java code can get information</text><text fill="#000000" font-family="sans-serif" font-size="13" lengthAdjust="spacingAndGlyphs" textLength="194" x="666" y="439.8467">about nodes, groups and services</text><text fill="#000000" font-family="sans-serif" font-size="13" lengthAdjust="spacingAndGlyphs" textLength="232" x="666" y="456.1982">by requesting the local cluster manager.</text><!--link cluster manager 1 to java code 1--><path d="M292.972,79 C317.703,79 344.683,79 366.834,79 " fill="none" id="cluster manager 1-java code 1" style="stroke: #A80036; stroke-width: 1.0;"/><polygon fill="#A80036" points="287.731,79,296.731,83,292.731,79,296.731,75,287.731,79" style="stroke: #A80036; stroke-width: 1.0;"/><text fill="#000000" font-family="sans-serif" font-size="13" lengthAdjust="spacingAndGlyphs" textLength="43" x="305.75" y="72.4951">request</text><!--link cluster manager 2 to java code 2--><path d="M655.972,79 C680.703,79 707.683,79 729.834,79 " fill="none" id="cluster manager 2-java code 2" style="stroke: #A80036; stroke-width: 1.0;"/><polygon fill="#A80036" points="650.731,79,659.731,83,655.731,79,659.731,75,650.731,79" style="stroke: #A80036; stroke-width: 1.0;"/><text fill="#000000" font-family="sans-serif" font-size="13" lengthAdjust="spacingAndGlyphs" textLength="43" x="668.75" y="72.4951">request</text><!--link cluster manager 3 to java code 3--><path d="M302.972,323 C327.703,323 354.683,323 376.834,323 " fill="none" id="cluster manager 3-java code 3" style="stroke: #A80036; stroke-width: 1.0;"/><polygon fill="#A80036" points="297.731,323,306.731,327,302.731,323,306.731,319,297.731,323" style="stroke: #A80036; stroke-width: 1.0;"/><text fill="#000000" font-family="sans-serif" font-size="13" lengthAdjust="spacingAndGlyphs" textLength="43" x="315.75" y="316.4951">request</text><!--link cluster manager 4 to java code 4--><path d="M665.972,323 C690.703,323 717.683,323 739.834,323 " fill="none" id="cluster manager 4-java code 4" style="stroke: #A80036; stroke-width: 1.0;"/><polygon fill="#A80036" points="660.731,323,669.731,327,665.731,323,669.731,319,660.731,323" style="stroke: #A80036; stroke-width: 1.0;"/><text fill="#000000" font-family="sans-serif" font-size="13" lengthAdjust="spacingAndGlyphs" textLength="43" x="678.75" y="316.4951">request</text><!--link multicast to cluster manager 4--><path d="M393.337,200.406 C426.516,220.561 511.392,272.121 559.284,301.215 " fill="none" id="multicast-cluster manager 4" style="stroke: #A80036; stroke-width: 1.0;"/><polygon fill="#A80036" points="563.8,303.958,558.1849,295.8666,559.5267,301.362,554.0313,302.7039,563.8,303.958" style="stroke: #A80036; stroke-width: 1.0;"/><polygon fill="#A80036" points="388.695,197.586,394.3113,205.6765,392.9687,200.1813,398.4639,198.8387,388.695,197.586" style="stroke: #A80036; stroke-width: 1.0;"/><!--link multicast to cluster manager 3--><path d="M366.296,203.52 C341.354,225.281 286.963,272.737 255.103,300.534 " fill="none" id="multicast-cluster manager 3" style="stroke: #A80036; stroke-width: 1.0;"/><polygon fill="#A80036" points="251.333,303.824,260.7442,300.9207,255.1004,300.5366,255.4844,294.8928,251.333,303.824" style="stroke: #A80036; stroke-width: 1.0;"/><polygon fill="#A80036" points="370.179,200.132,360.7678,203.0353,366.4116,203.4194,366.0276,209.0632,370.179,200.132" style="stroke: #A80036; stroke-width: 1.0;"/><!--link cluster manager 2 to multicast--><path d="M545.209,100.647 C499.025,125.55 423.782,166.123 393.136,182.647 " fill="none" id="cluster manager 2-multicast" style="stroke: #A80036; stroke-width: 1.0;"/><polygon fill="#A80036" points="388.612,185.087,398.4323,184.337,393.0132,182.7143,394.6359,177.2952,388.612,185.087" style="stroke: #A80036; stroke-width: 1.0;"/><polygon fill="#A80036" points="549.814,98.164,539.9937,98.914,545.4128,100.5367,543.7901,105.9558,549.814,98.164" style="stroke: #A80036; stroke-width: 1.0;"/><!--link cluster manager 1 to multicast--><path d="M251.136,101.195 C285.858,125.216 340.896,163.293 366.098,180.728 " fill="none" id="cluster manager 1-multicast" style="stroke: #A80036; stroke-width: 1.0;"/><polygon fill="#A80036" points="370.445,183.736,365.3192,175.3261,366.3331,180.8914,360.7678,181.9052,370.445,183.736" style="stroke: #A80036; stroke-width: 1.0;"/><polygon fill="#A80036" points="246.756,98.164,251.8818,106.5739,250.8679,101.0086,256.4332,99.9948,246.756,98.164" style="stroke: #A80036; stroke-width: 1.0;"/><!--
@startuml

folder "node 1" {
    [java code 1] -left-> [cluster manager 1]: request
}

folder "node 2" {
    [java code 2] -left-> [cluster manager 2]: request
}

folder "node 3" {
    [java code 3] -left-> [cluster manager 3]: request
}

folder "node 4" {
    [java code 4] -left-> [cluster manager 4]: request
}

multicast <-down-> [cluster manager 4]
multicast <-down-> [cluster manager 3]
multicast <-up-> [cluster manager 2]
multicast <-up-> [cluster manager 1]

note bottom of [cluster manager 2]
  Each node sends its information
  to the cluster using multicast.
end note

note bottom of [cluster manager 3]
Every node receives information sent by other nodes.
Each node maintains its own in-memory database.
end note

note left of [multicast]
Information about endpoints, groups and services
is sent to a multicast address that broadcasts it
to all nodes.
end note

note bottom of [java code 4]
The local java code can get information
about nodes, groups and services
by requesting the local cluster manager.
end note
@enduml

PlantUML version 1.2018.01(Sun Jan 28 19:08:22 CET 2018)
(APACHE source distribution)
Java Runtime: Java(TM) SE Runtime Environment
JVM: Java HotSpot(TM) 64-Bit Server VM
Java Version: 1.8.0_161-b12
Operating System: Windows 7
OS Version: 6.1
Default Encoding: UTF-8
Language: fr
Country: FR
--></g></svg>